<?xml version="1.0" encoding="UTF-8"?>
<!DOCTYPE svg PUBLIC "-//W3C//DTD SVG 1.1//EN" "http://www.w3.org/Graphics/SVG/1.1/DTD/svg11.dtd">
<svg version="1.1" xmlns="http://www.w3.org/2000/svg" xmlns:xlink="http://www.w3.org/1999/xlink" x="0" y="0" width="600" height="600" viewBox="0, 0, 300, 300">
  <g id="Layer_1">
    <path d="M186.191,295 C186.191,295 175.134,271.38 208.806,231.176 L266.097,174.387 C266.097,174.387 295.689,151.818 269.112,118.101 C235.441,75.384 166.591,14.575 166.591,14.575 C166.591,14.575 143.473,-10.553 123.371,20.605 C103.269,51.764 94.223,80.912 94.223,80.912 L65.548,150 C65.548,150 43.293,184.294 73.618,209.566 C103.772,234.694 186.191,295 186.191,295" fill="#194872"/>
    <path d="M92.213,86.44 L96.233,76.389 L158.047,140.213 C158.047,140.213 188.703,168.356 164.581,191.976 C140.458,215.597 133.276,227.475 133.276,227.475 L120.858,246.252 L114.325,240.724 z" fill="#174167"/>
    <path d="M118.145,268.441 C118.145,268.441 105.531,244.996 124.628,216.853 L149.756,185.192 C149.756,185.192 168.852,167.1 151.766,145.993 C130.986,120.323 77.137,74.379 77.137,74.379 C74.658,74.048 54.864,49.102 42.712,80.158 C33.666,103.276 32.66,103.276 27.635,126.896 C23.451,146.558 8.538,180.167 35.878,200.976 C53.8,214.617 118.145,268.441 118.145,268.441" fill="#34838C"/>
  </g>
</svg>
